<mxfile host="app.diagrams.net" agent="Mozilla/5.0 (Windows NT 10.0; Win64; x64) AppleWebKit/537.36 (KHTML, like Gecko) Chrome/125.0.0.0 Safari/537.36" version="24.7.5">
  <diagram id="Ht1M8jgEwFfnCIfOTk4-" name="Page-1">
    <mxGraphModel dx="1530" dy="872" grid="1" gridSize="10" guides="1" tooltips="1" connect="1" arrows="1" fold="1" page="1" pageScale="1" pageWidth="1169" pageHeight="827" math="0" shadow="0">
      <root>
        <mxCell id="0" />
        <mxCell id="1" parent="0" />
        <mxCell id="UEzPUAAOIrF-is8g5C7q-74" value="AWS Account" style="points=[[0,0],[0.25,0],[0.5,0],[0.75,0],[1,0],[1,0.25],[1,0.5],[1,0.75],[1,1],[0.75,1],[0.5,1],[0.25,1],[0,1],[0,0.75],[0,0.5],[0,0.25]];outlineConnect=0;gradientColor=none;html=1;whiteSpace=wrap;fontSize=12;fontStyle=0;shape=mxgraph.aws4.group;grIcon=mxgraph.aws4.group_aws_cloud_alt;strokeColor=#232F3E;fillColor=default;verticalAlign=top;align=left;spacingLeft=30;fontColor=#232F3E;dashed=0;labelBackgroundColor=#ffffff;container=1;pointerEvents=0;collapsible=0;recursiveResize=0;" parent="1" vertex="1">
          <mxGeometry x="50" y="80" width="780" height="680" as="geometry" />
        </mxCell>
        <mxCell id="wHoMeCdLVfItlk6bG5Gv-6" value="VPC (10.0.0.0/16)" style="sketch=0;outlineConnect=0;gradientColor=none;html=1;whiteSpace=wrap;fontSize=12;fontStyle=0;shape=mxgraph.aws4.group;grIcon=mxgraph.aws4.group_vpc;strokeColor=#879196;fillColor=none;verticalAlign=top;align=left;spacingLeft=30;fontColor=#000000;dashed=0;container=1;collapsible=0;recursiveResize=0;" vertex="1" parent="UEzPUAAOIrF-is8g5C7q-74">
          <mxGeometry x="20" y="40" width="740" height="490" as="geometry" />
        </mxCell>
        <mxCell id="wHoMeCdLVfItlk6bG5Gv-5" value="Default Security group/Network ACL" style="fillColor=none;strokeColor=#DD3522;verticalAlign=top;fontStyle=0;fontColor=#DD3522;whiteSpace=wrap;html=1;container=1;collapsible=0;portConstraintRotation=0;rotatable=0;recursiveResize=0;align=left;dashed=1;dashPattern=8 8;" vertex="1" parent="wHoMeCdLVfItlk6bG5Gv-6">
          <mxGeometry x="14.5" y="40" width="705.5" height="430" as="geometry">
            <mxRectangle x="554.75" y="269" width="120" height="30" as="alternateBounds" />
          </mxGeometry>
        </mxCell>
        <mxCell id="wHoMeCdLVfItlk6bG5Gv-8" value="Private Subnet (10.0.1.0/24)" style="sketch=0;outlineConnect=0;gradientColor=none;html=1;whiteSpace=wrap;fontSize=12;fontStyle=0;shape=mxgraph.aws4.group;grIcon=mxgraph.aws4.group_subnet;strokeColor=#879196;fillColor=none;verticalAlign=top;align=left;spacingLeft=30;fontColor=#000000;dashed=0;recursiveResize=0;" vertex="1" parent="wHoMeCdLVfItlk6bG5Gv-5">
          <mxGeometry x="25.5" y="40" width="320" height="380" as="geometry" />
        </mxCell>
        <mxCell id="wHoMeCdLVfItlk6bG5Gv-7" value="Public Subnet (10.0.101.0/24, 10.0.102.0/24)" style="sketch=0;outlineConnect=0;gradientColor=none;html=1;whiteSpace=wrap;fontSize=12;fontStyle=0;shape=mxgraph.aws4.group;grIcon=mxgraph.aws4.group_subnet;strokeColor=#879196;fillColor=none;verticalAlign=top;align=left;spacingLeft=30;fontColor=#000000;dashed=0;container=1;collapsible=0;recursiveResize=0;" vertex="1" parent="wHoMeCdLVfItlk6bG5Gv-5">
          <mxGeometry x="375.5" y="40" width="290" height="226" as="geometry" />
        </mxCell>
        <mxCell id="wHoMeCdLVfItlk6bG5Gv-47" value="IGW" style="outlineConnect=0;dashed=0;verticalLabelPosition=bottom;verticalAlign=top;align=center;html=1;shape=mxgraph.aws3.internet_gateway;fillColor=#F58534;gradientColor=none;" vertex="1" parent="wHoMeCdLVfItlk6bG5Gv-7">
          <mxGeometry x="190.05" y="77" width="69" height="72" as="geometry" />
        </mxCell>
        <mxCell id="wHoMeCdLVfItlk6bG5Gv-2" value="ALB" style="outlineConnect=0;dashed=0;verticalLabelPosition=bottom;verticalAlign=top;align=center;html=1;shape=mxgraph.aws3.application_load_balancer;fillColor=#F58534;gradientColor=none;" vertex="1" parent="wHoMeCdLVfItlk6bG5Gv-7">
          <mxGeometry x="69.99999999999999" y="77" width="69" height="72" as="geometry" />
        </mxCell>
        <mxCell id="wHoMeCdLVfItlk6bG5Gv-49" style="edgeStyle=orthogonalEdgeStyle;rounded=0;orthogonalLoop=1;jettySize=auto;html=1;" edge="1" parent="wHoMeCdLVfItlk6bG5Gv-7" source="wHoMeCdLVfItlk6bG5Gv-47" target="wHoMeCdLVfItlk6bG5Gv-2">
          <mxGeometry relative="1" as="geometry" />
        </mxCell>
        <mxCell id="wHoMeCdLVfItlk6bG5Gv-11" style="edgeStyle=orthogonalEdgeStyle;rounded=0;orthogonalLoop=1;jettySize=auto;html=1;" edge="1" parent="wHoMeCdLVfItlk6bG5Gv-6" source="wHoMeCdLVfItlk6bG5Gv-9" target="wHoMeCdLVfItlk6bG5Gv-62">
          <mxGeometry relative="1" as="geometry">
            <mxPoint x="250" y="166.5" as="targetPoint" />
          </mxGeometry>
        </mxCell>
        <mxCell id="wHoMeCdLVfItlk6bG5Gv-12" value="Launch Template&lt;div&gt;Instance Settings&lt;/div&gt;" style="edgeLabel;html=1;align=center;verticalAlign=middle;resizable=0;points=[];" vertex="1" connectable="0" parent="wHoMeCdLVfItlk6bG5Gv-11">
          <mxGeometry x="-0.491" y="-1" relative="1" as="geometry">
            <mxPoint x="26" y="23" as="offset" />
          </mxGeometry>
        </mxCell>
        <mxCell id="wHoMeCdLVfItlk6bG5Gv-9" value="Auto Scaling&lt;div&gt;Group&lt;/div&gt;" style="sketch=0;outlineConnect=0;fontColor=#232F3E;gradientColor=none;fillColor=#ED7100;strokeColor=none;dashed=0;verticalLabelPosition=bottom;verticalAlign=top;align=center;html=1;fontSize=12;fontStyle=0;aspect=fixed;pointerEvents=1;shape=mxgraph.aws4.auto_scaling2;" vertex="1" parent="wHoMeCdLVfItlk6bG5Gv-6">
          <mxGeometry x="60" y="142.5" width="48" height="48" as="geometry" />
        </mxCell>
        <mxCell id="wHoMeCdLVfItlk6bG5Gv-43" style="edgeStyle=orthogonalEdgeStyle;rounded=0;orthogonalLoop=1;jettySize=auto;html=1;endArrow=none;endFill=0;startArrow=classic;startFill=1;" edge="1" parent="wHoMeCdLVfItlk6bG5Gv-6" source="wHoMeCdLVfItlk6bG5Gv-62" target="wHoMeCdLVfItlk6bG5Gv-13">
          <mxGeometry relative="1" as="geometry">
            <mxPoint x="326.5" y="166.5" as="sourcePoint" />
            <Array as="points">
              <mxPoint x="350" y="167" />
              <mxPoint x="350" y="260" />
              <mxPoint x="84" y="260" />
            </Array>
          </mxGeometry>
        </mxCell>
        <mxCell id="wHoMeCdLVfItlk6bG5Gv-13" value="ECS Cluster" style="outlineConnect=0;dashed=0;verticalLabelPosition=bottom;verticalAlign=top;align=center;html=1;shape=mxgraph.aws3.ecs;fillColor=#F58534;gradientColor=none;" vertex="1" parent="wHoMeCdLVfItlk6bG5Gv-6">
          <mxGeometry x="48" y="280" width="72" height="67.5" as="geometry" />
        </mxCell>
        <mxCell id="wHoMeCdLVfItlk6bG5Gv-17" value="my-ecs-service" style="sketch=0;outlineConnect=0;fontColor=#232F3E;gradientColor=none;fillColor=#ED7100;strokeColor=none;dashed=0;verticalLabelPosition=bottom;verticalAlign=top;align=center;html=1;fontSize=12;fontStyle=0;aspect=fixed;pointerEvents=1;shape=mxgraph.aws4.ecs_service;" vertex="1" parent="wHoMeCdLVfItlk6bG5Gv-6">
          <mxGeometry x="178.5" y="289.75" width="39" height="48" as="geometry" />
        </mxCell>
        <mxCell id="wHoMeCdLVfItlk6bG5Gv-15" style="edgeStyle=orthogonalEdgeStyle;rounded=0;orthogonalLoop=1;jettySize=auto;html=1;" edge="1" parent="wHoMeCdLVfItlk6bG5Gv-6" source="wHoMeCdLVfItlk6bG5Gv-17" target="wHoMeCdLVfItlk6bG5Gv-13">
          <mxGeometry relative="1" as="geometry">
            <mxPoint x="190" y="404" as="sourcePoint" />
          </mxGeometry>
        </mxCell>
        <mxCell id="wHoMeCdLVfItlk6bG5Gv-16" value="my-ecs-task" style="sketch=0;outlineConnect=0;fontColor=#232F3E;gradientColor=none;fillColor=#ED7100;strokeColor=none;dashed=0;verticalLabelPosition=bottom;verticalAlign=top;align=center;html=1;fontSize=12;fontStyle=0;aspect=fixed;pointerEvents=1;shape=mxgraph.aws4.ecs_task;" vertex="1" parent="wHoMeCdLVfItlk6bG5Gv-6">
          <mxGeometry x="269.75" y="289.75" width="37" height="48" as="geometry" />
        </mxCell>
        <mxCell id="wHoMeCdLVfItlk6bG5Gv-18" style="edgeStyle=orthogonalEdgeStyle;rounded=0;orthogonalLoop=1;jettySize=auto;html=1;" edge="1" parent="wHoMeCdLVfItlk6bG5Gv-6" source="wHoMeCdLVfItlk6bG5Gv-16" target="wHoMeCdLVfItlk6bG5Gv-17">
          <mxGeometry relative="1" as="geometry" />
        </mxCell>
        <mxCell id="wHoMeCdLVfItlk6bG5Gv-19" value="Flask-Hello-World Container" style="sketch=0;outlineConnect=0;fontColor=#232F3E;gradientColor=none;fillColor=#ED7100;strokeColor=none;dashed=0;verticalLabelPosition=bottom;verticalAlign=top;align=center;html=1;fontSize=12;fontStyle=0;aspect=fixed;pointerEvents=1;shape=mxgraph.aws4.container_1;" vertex="1" parent="wHoMeCdLVfItlk6bG5Gv-6">
          <mxGeometry x="264.25" y="390" width="48" height="31" as="geometry" />
        </mxCell>
        <mxCell id="wHoMeCdLVfItlk6bG5Gv-20" style="edgeStyle=orthogonalEdgeStyle;rounded=0;orthogonalLoop=1;jettySize=auto;html=1;" edge="1" parent="wHoMeCdLVfItlk6bG5Gv-6" source="wHoMeCdLVfItlk6bG5Gv-19" target="wHoMeCdLVfItlk6bG5Gv-16">
          <mxGeometry relative="1" as="geometry">
            <Array as="points">
              <mxPoint x="340" y="400" />
              <mxPoint x="340" y="314" />
            </Array>
          </mxGeometry>
        </mxCell>
        <mxCell id="wHoMeCdLVfItlk6bG5Gv-62" value="&lt;span style=&quot;color: rgb(0, 0, 0);&quot;&gt;ECS-Optimized&lt;/span&gt;&lt;div style=&quot;color: rgb(0, 0, 0);&quot;&gt;EC2 Instance&lt;/div&gt;" style="sketch=0;points=[[0,0,0],[0.25,0,0],[0.5,0,0],[0.75,0,0],[1,0,0],[0,1,0],[0.25,1,0],[0.5,1,0],[0.75,1,0],[1,1,0],[0,0.25,0],[0,0.5,0],[0,0.75,0],[1,0.25,0],[1,0.5,0],[1,0.75,0]];outlineConnect=0;fontColor=#232F3E;fillColor=#ED7100;strokeColor=#ffffff;dashed=0;verticalLabelPosition=bottom;verticalAlign=top;align=center;html=1;fontSize=12;fontStyle=0;aspect=fixed;shape=mxgraph.aws4.resourceIcon;resIcon=mxgraph.aws4.ec2;" vertex="1" parent="wHoMeCdLVfItlk6bG5Gv-6">
          <mxGeometry x="249.25" y="127.5" width="78" height="78" as="geometry" />
        </mxCell>
        <mxCell id="wHoMeCdLVfItlk6bG5Gv-21" style="edgeStyle=orthogonalEdgeStyle;rounded=0;orthogonalLoop=1;jettySize=auto;html=1;" edge="1" parent="wHoMeCdLVfItlk6bG5Gv-6" source="wHoMeCdLVfItlk6bG5Gv-2" target="wHoMeCdLVfItlk6bG5Gv-19">
          <mxGeometry relative="1" as="geometry">
            <Array as="points">
              <mxPoint x="450" y="193" />
              <mxPoint x="450" y="410" />
            </Array>
          </mxGeometry>
        </mxCell>
        <mxCell id="wHoMeCdLVfItlk6bG5Gv-22" value="Port 5000 (HTTP)" style="edgeLabel;html=1;align=center;verticalAlign=middle;resizable=0;points=[];" vertex="1" connectable="0" parent="wHoMeCdLVfItlk6bG5Gv-21">
          <mxGeometry x="-0.0184" relative="1" as="geometry">
            <mxPoint x="-50" y="29" as="offset" />
          </mxGeometry>
        </mxCell>
        <mxCell id="wHoMeCdLVfItlk6bG5Gv-23" value="ECR" style="outlineConnect=0;dashed=0;verticalLabelPosition=bottom;verticalAlign=top;align=center;html=1;shape=mxgraph.aws3.ecr;fillColor=#F58534;gradientColor=none;" vertex="1" parent="UEzPUAAOIrF-is8g5C7q-74">
          <mxGeometry x="50" y="560" width="69" height="72" as="geometry" />
        </mxCell>
        <mxCell id="wHoMeCdLVfItlk6bG5Gv-24" value="IAM" style="outlineConnect=0;dashed=0;verticalLabelPosition=bottom;verticalAlign=top;align=center;html=1;shape=mxgraph.aws3.iam;fillColor=#759C3E;gradientColor=none;" vertex="1" parent="UEzPUAAOIrF-is8g5C7q-74">
          <mxGeometry x="540" y="555.5" width="42" height="81" as="geometry" />
        </mxCell>
        <mxCell id="wHoMeCdLVfItlk6bG5Gv-27" style="edgeStyle=orthogonalEdgeStyle;rounded=0;orthogonalLoop=1;jettySize=auto;html=1;endArrow=none;endFill=0;" edge="1" parent="UEzPUAAOIrF-is8g5C7q-74" source="wHoMeCdLVfItlk6bG5Gv-25" target="wHoMeCdLVfItlk6bG5Gv-24">
          <mxGeometry relative="1" as="geometry" />
        </mxCell>
        <mxCell id="wHoMeCdLVfItlk6bG5Gv-25" value="ec2_runtime" style="sketch=0;outlineConnect=0;fontColor=#232F3E;gradientColor=none;fillColor=#DD344C;strokeColor=none;dashed=0;verticalLabelPosition=bottom;verticalAlign=top;align=center;html=1;fontSize=12;fontStyle=0;aspect=fixed;pointerEvents=1;shape=mxgraph.aws4.role;" vertex="1" parent="UEzPUAAOIrF-is8g5C7q-74">
          <mxGeometry x="660" y="555.5" width="35.45" height="20" as="geometry" />
        </mxCell>
        <mxCell id="wHoMeCdLVfItlk6bG5Gv-26" value="ecs_task_execution_role" style="sketch=0;outlineConnect=0;fontColor=#232F3E;gradientColor=none;fillColor=#DD344C;strokeColor=none;dashed=0;verticalLabelPosition=bottom;verticalAlign=top;align=center;html=1;fontSize=12;fontStyle=0;aspect=fixed;pointerEvents=1;shape=mxgraph.aws4.role;" vertex="1" parent="UEzPUAAOIrF-is8g5C7q-74">
          <mxGeometry x="660" y="616.5" width="35.45" height="20" as="geometry" />
        </mxCell>
        <mxCell id="wHoMeCdLVfItlk6bG5Gv-28" style="edgeStyle=orthogonalEdgeStyle;rounded=0;orthogonalLoop=1;jettySize=auto;html=1;entryX=0.92;entryY=0.5;entryDx=0;entryDy=0;entryPerimeter=0;strokeColor=default;endArrow=none;endFill=0;" edge="1" parent="UEzPUAAOIrF-is8g5C7q-74" source="wHoMeCdLVfItlk6bG5Gv-26" target="wHoMeCdLVfItlk6bG5Gv-24">
          <mxGeometry relative="1" as="geometry" />
        </mxCell>
        <mxCell id="wHoMeCdLVfItlk6bG5Gv-30" style="edgeStyle=orthogonalEdgeStyle;rounded=0;orthogonalLoop=1;jettySize=auto;html=1;endArrow=none;endFill=0;" edge="1" parent="UEzPUAAOIrF-is8g5C7q-74" source="wHoMeCdLVfItlk6bG5Gv-29" target="wHoMeCdLVfItlk6bG5Gv-23">
          <mxGeometry relative="1" as="geometry" />
        </mxCell>
        <mxCell id="wHoMeCdLVfItlk6bG5Gv-29" value="ecr_use1_flask_hello_world&lt;div&gt;Repo&lt;/div&gt;" style="outlineConnect=0;dashed=0;verticalLabelPosition=bottom;verticalAlign=top;align=center;html=1;shape=mxgraph.aws3.ecr_registry;fillColor=#F58534;gradientColor=none;" vertex="1" parent="UEzPUAAOIrF-is8g5C7q-74">
          <mxGeometry x="190" y="579" width="32.3" height="34" as="geometry" />
        </mxCell>
        <mxCell id="wHoMeCdLVfItlk6bG5Gv-1" value="Internet" style="ellipse;shape=cloud;whiteSpace=wrap;html=1;" vertex="1" parent="1">
          <mxGeometry x="940" y="273" width="120" height="80" as="geometry" />
        </mxCell>
        <mxCell id="wHoMeCdLVfItlk6bG5Gv-31" value="ECS Deploy Workflow" style="swimlane;whiteSpace=wrap;html=1;fillColor=#FFFFFF;expand=1;collapsible=0;align=left;" vertex="1" parent="1">
          <mxGeometry x="50" y="1060" width="840" height="270" as="geometry">
            <mxRectangle x="50" y="790" width="160" height="30" as="alternateBounds" />
          </mxGeometry>
        </mxCell>
        <mxCell id="wHoMeCdLVfItlk6bG5Gv-34" style="edgeStyle=orthogonalEdgeStyle;rounded=0;orthogonalLoop=1;jettySize=auto;html=1;" edge="1" parent="wHoMeCdLVfItlk6bG5Gv-31" source="wHoMeCdLVfItlk6bG5Gv-32" target="wHoMeCdLVfItlk6bG5Gv-33">
          <mxGeometry relative="1" as="geometry" />
        </mxCell>
        <mxCell id="wHoMeCdLVfItlk6bG5Gv-35" value="1. Creates New Task" style="edgeLabel;html=1;align=center;verticalAlign=middle;resizable=0;points=[];fontStyle=1" vertex="1" connectable="0" parent="wHoMeCdLVfItlk6bG5Gv-34">
          <mxGeometry x="-0.2397" y="1" relative="1" as="geometry">
            <mxPoint x="15" y="11" as="offset" />
          </mxGeometry>
        </mxCell>
        <mxCell id="wHoMeCdLVfItlk6bG5Gv-32" value="my-ecs-service" style="sketch=0;outlineConnect=0;fontColor=#232F3E;gradientColor=none;fillColor=#ED7100;strokeColor=none;dashed=0;verticalLabelPosition=bottom;verticalAlign=top;align=center;html=1;fontSize=12;fontStyle=0;aspect=fixed;pointerEvents=1;shape=mxgraph.aws4.ecs_service;" vertex="1" parent="wHoMeCdLVfItlk6bG5Gv-31">
          <mxGeometry x="50" y="111" width="39" height="48" as="geometry" />
        </mxCell>
        <mxCell id="wHoMeCdLVfItlk6bG5Gv-38" style="edgeStyle=orthogonalEdgeStyle;rounded=0;orthogonalLoop=1;jettySize=auto;html=1;endArrow=none;endFill=0;" edge="1" parent="wHoMeCdLVfItlk6bG5Gv-31" source="wHoMeCdLVfItlk6bG5Gv-33" target="wHoMeCdLVfItlk6bG5Gv-37">
          <mxGeometry relative="1" as="geometry">
            <Array as="points">
              <mxPoint x="239" y="50" />
            </Array>
          </mxGeometry>
        </mxCell>
        <mxCell id="wHoMeCdLVfItlk6bG5Gv-39" value="2. Assume role for execution" style="edgeLabel;html=1;align=center;verticalAlign=middle;resizable=0;points=[];fontStyle=1" vertex="1" connectable="0" parent="wHoMeCdLVfItlk6bG5Gv-38">
          <mxGeometry x="-0.2374" y="2" relative="1" as="geometry">
            <mxPoint x="28" y="-8" as="offset" />
          </mxGeometry>
        </mxCell>
        <mxCell id="wHoMeCdLVfItlk6bG5Gv-42" style="edgeStyle=orthogonalEdgeStyle;rounded=0;orthogonalLoop=1;jettySize=auto;html=1;endArrow=none;endFill=0;startArrow=classic;startFill=1;" edge="1" parent="wHoMeCdLVfItlk6bG5Gv-31" source="wHoMeCdLVfItlk6bG5Gv-33" target="wHoMeCdLVfItlk6bG5Gv-41">
          <mxGeometry relative="1" as="geometry">
            <Array as="points">
              <mxPoint x="510" y="120" />
              <mxPoint x="510" y="47" />
            </Array>
          </mxGeometry>
        </mxCell>
        <mxCell id="wHoMeCdLVfItlk6bG5Gv-45" value="3. Pull image" style="edgeLabel;html=1;align=center;verticalAlign=middle;resizable=0;points=[];fontStyle=1" vertex="1" connectable="0" parent="wHoMeCdLVfItlk6bG5Gv-42">
          <mxGeometry x="-0.5035" y="1" relative="1" as="geometry">
            <mxPoint x="35" y="-8" as="offset" />
          </mxGeometry>
        </mxCell>
        <mxCell id="wHoMeCdLVfItlk6bG5Gv-51" style="edgeStyle=orthogonalEdgeStyle;rounded=0;orthogonalLoop=1;jettySize=auto;html=1;" edge="1" parent="wHoMeCdLVfItlk6bG5Gv-31" source="wHoMeCdLVfItlk6bG5Gv-33" target="wHoMeCdLVfItlk6bG5Gv-50">
          <mxGeometry relative="1" as="geometry">
            <Array as="points">
              <mxPoint x="460" y="135" />
              <mxPoint x="460" y="135" />
            </Array>
          </mxGeometry>
        </mxCell>
        <mxCell id="wHoMeCdLVfItlk6bG5Gv-52" value="4. Create container instance" style="edgeLabel;html=1;align=center;verticalAlign=middle;resizable=0;points=[];fontStyle=1" vertex="1" connectable="0" parent="wHoMeCdLVfItlk6bG5Gv-51">
          <mxGeometry x="0.2483" y="-4" relative="1" as="geometry">
            <mxPoint x="-20" y="8" as="offset" />
          </mxGeometry>
        </mxCell>
        <mxCell id="wHoMeCdLVfItlk6bG5Gv-55" style="edgeStyle=orthogonalEdgeStyle;rounded=0;orthogonalLoop=1;jettySize=auto;html=1;" edge="1" parent="wHoMeCdLVfItlk6bG5Gv-31" source="wHoMeCdLVfItlk6bG5Gv-33" target="wHoMeCdLVfItlk6bG5Gv-54">
          <mxGeometry relative="1" as="geometry">
            <Array as="points">
              <mxPoint x="290" y="150" />
              <mxPoint x="290" y="206" />
            </Array>
          </mxGeometry>
        </mxCell>
        <mxCell id="wHoMeCdLVfItlk6bG5Gv-56" value="5. Register Service in ALB Target Group" style="edgeLabel;html=1;align=center;verticalAlign=middle;resizable=0;points=[];fontStyle=1" vertex="1" connectable="0" parent="wHoMeCdLVfItlk6bG5Gv-55">
          <mxGeometry x="-0.417" y="-2" relative="1" as="geometry">
            <mxPoint x="203" y="-16" as="offset" />
          </mxGeometry>
        </mxCell>
        <mxCell id="wHoMeCdLVfItlk6bG5Gv-33" value="my-ecs-task" style="sketch=0;outlineConnect=0;fontColor=#232F3E;gradientColor=none;fillColor=#ED7100;strokeColor=none;dashed=0;verticalLabelPosition=bottom;verticalAlign=top;align=center;html=1;fontSize=12;fontStyle=0;aspect=fixed;pointerEvents=1;shape=mxgraph.aws4.ecs_task;" vertex="1" parent="wHoMeCdLVfItlk6bG5Gv-31">
          <mxGeometry x="220" y="111" width="37" height="48" as="geometry" />
        </mxCell>
        <mxCell id="wHoMeCdLVfItlk6bG5Gv-37" value="ecs_task_execution_role" style="sketch=0;outlineConnect=0;fontColor=#232F3E;gradientColor=none;fillColor=#DD344C;strokeColor=none;dashed=0;verticalLabelPosition=bottom;verticalAlign=top;align=center;html=1;fontSize=12;fontStyle=0;aspect=fixed;pointerEvents=1;shape=mxgraph.aws4.role;" vertex="1" parent="wHoMeCdLVfItlk6bG5Gv-31">
          <mxGeometry x="402.28" y="37" width="35.45" height="20" as="geometry" />
        </mxCell>
        <mxCell id="wHoMeCdLVfItlk6bG5Gv-41" value="ecr_use1_flask_hello_world&lt;div&gt;Repo&lt;/div&gt;" style="outlineConnect=0;dashed=0;verticalLabelPosition=bottom;verticalAlign=top;align=center;html=1;shape=mxgraph.aws3.ecr_registry;fillColor=#F58534;gradientColor=none;" vertex="1" parent="wHoMeCdLVfItlk6bG5Gv-31">
          <mxGeometry x="580" y="30" width="32.3" height="34" as="geometry" />
        </mxCell>
        <mxCell id="wHoMeCdLVfItlk6bG5Gv-50" value="Flask-Hello-World Container" style="sketch=0;outlineConnect=0;fontColor=#232F3E;gradientColor=none;fillColor=#ED7100;strokeColor=none;dashed=0;verticalLabelPosition=bottom;verticalAlign=top;align=center;html=1;fontSize=12;fontStyle=0;aspect=fixed;pointerEvents=1;shape=mxgraph.aws4.container_1;" vertex="1" parent="wHoMeCdLVfItlk6bG5Gv-31">
          <mxGeometry x="624" y="118.5" width="48" height="31" as="geometry" />
        </mxCell>
        <mxCell id="wHoMeCdLVfItlk6bG5Gv-54" value="ALB" style="outlineConnect=0;dashed=0;verticalLabelPosition=bottom;verticalAlign=top;align=center;html=1;shape=mxgraph.aws3.application_load_balancer;fillColor=#F58534;gradientColor=none;" vertex="1" parent="wHoMeCdLVfItlk6bG5Gv-31">
          <mxGeometry x="720" y="170" width="69" height="72" as="geometry" />
        </mxCell>
        <mxCell id="wHoMeCdLVfItlk6bG5Gv-3" style="edgeStyle=orthogonalEdgeStyle;rounded=0;orthogonalLoop=1;jettySize=auto;html=1;endArrow=none;endFill=0;" edge="1" parent="1" source="wHoMeCdLVfItlk6bG5Gv-1" target="wHoMeCdLVfItlk6bG5Gv-47">
          <mxGeometry relative="1" as="geometry" />
        </mxCell>
        <mxCell id="wHoMeCdLVfItlk6bG5Gv-46" value="Port 5000 (HTTP)" style="edgeLabel;html=1;align=center;verticalAlign=middle;resizable=0;points=[];" vertex="1" connectable="0" parent="wHoMeCdLVfItlk6bG5Gv-3">
          <mxGeometry x="-0.4159" y="1" relative="1" as="geometry">
            <mxPoint x="6" y="-12" as="offset" />
          </mxGeometry>
        </mxCell>
        <mxCell id="wHoMeCdLVfItlk6bG5Gv-58" value="EC2 Deployment" style="swimlane;whiteSpace=wrap;html=1;collapsible=0;align=left;labelBackgroundColor=default;textShadow=0;" vertex="1" parent="1">
          <mxGeometry x="50" y="800" width="670" height="240" as="geometry" />
        </mxCell>
        <mxCell id="wHoMeCdLVfItlk6bG5Gv-64" style="edgeStyle=orthogonalEdgeStyle;rounded=0;orthogonalLoop=1;jettySize=auto;html=1;" edge="1" parent="wHoMeCdLVfItlk6bG5Gv-58" source="wHoMeCdLVfItlk6bG5Gv-59" target="wHoMeCdLVfItlk6bG5Gv-63">
          <mxGeometry relative="1" as="geometry" />
        </mxCell>
        <mxCell id="wHoMeCdLVfItlk6bG5Gv-65" value="1. Create EC2 Instance&lt;br&gt;Desired(Initial) or&lt;div&gt;Minimum(Continual)&lt;/div&gt;" style="edgeLabel;html=1;align=center;verticalAlign=middle;resizable=0;points=[];fontStyle=1" vertex="1" connectable="0" parent="wHoMeCdLVfItlk6bG5Gv-64">
          <mxGeometry x="-0.3072" y="1" relative="1" as="geometry">
            <mxPoint x="20" y="-20" as="offset" />
          </mxGeometry>
        </mxCell>
        <mxCell id="wHoMeCdLVfItlk6bG5Gv-59" value="Auto Scaling&lt;div&gt;Group&lt;/div&gt;" style="sketch=0;outlineConnect=0;fontColor=#232F3E;gradientColor=none;fillColor=#ED7100;strokeColor=none;dashed=0;verticalLabelPosition=bottom;verticalAlign=top;align=center;html=1;fontSize=12;fontStyle=0;aspect=fixed;pointerEvents=1;shape=mxgraph.aws4.auto_scaling2;" vertex="1" parent="wHoMeCdLVfItlk6bG5Gv-58">
          <mxGeometry x="40" y="116" width="48" height="48" as="geometry" />
        </mxCell>
        <mxCell id="wHoMeCdLVfItlk6bG5Gv-68" style="edgeStyle=orthogonalEdgeStyle;rounded=0;orthogonalLoop=1;jettySize=auto;html=1;" edge="1" parent="wHoMeCdLVfItlk6bG5Gv-58" source="wHoMeCdLVfItlk6bG5Gv-63" target="wHoMeCdLVfItlk6bG5Gv-67">
          <mxGeometry relative="1" as="geometry" />
        </mxCell>
        <mxCell id="wHoMeCdLVfItlk6bG5Gv-69" value="3. Register ECS Cluster" style="edgeLabel;html=1;align=center;verticalAlign=middle;resizable=0;points=[];fontStyle=1" vertex="1" connectable="0" parent="wHoMeCdLVfItlk6bG5Gv-68">
          <mxGeometry x="0.2051" y="-1" relative="1" as="geometry">
            <mxPoint x="-11" y="9" as="offset" />
          </mxGeometry>
        </mxCell>
        <mxCell id="wHoMeCdLVfItlk6bG5Gv-71" style="edgeStyle=orthogonalEdgeStyle;rounded=0;orthogonalLoop=1;jettySize=auto;html=1;" edge="1" parent="wHoMeCdLVfItlk6bG5Gv-58" source="wHoMeCdLVfItlk6bG5Gv-63" target="wHoMeCdLVfItlk6bG5Gv-70">
          <mxGeometry relative="1" as="geometry">
            <Array as="points">
              <mxPoint x="289" y="70" />
            </Array>
          </mxGeometry>
        </mxCell>
        <mxCell id="wHoMeCdLVfItlk6bG5Gv-72" value="2. Assign role for execution" style="edgeLabel;html=1;align=center;verticalAlign=middle;resizable=0;points=[];fontStyle=1" vertex="1" connectable="0" parent="wHoMeCdLVfItlk6bG5Gv-71">
          <mxGeometry x="0.0963" y="1" relative="1" as="geometry">
            <mxPoint x="-8" y="-7" as="offset" />
          </mxGeometry>
        </mxCell>
        <mxCell id="wHoMeCdLVfItlk6bG5Gv-63" value="&lt;span style=&quot;color: rgb(0, 0, 0);&quot;&gt;ECS-Optimized&lt;/span&gt;&lt;div style=&quot;color: rgb(0, 0, 0);&quot;&gt;EC2 Instance&lt;/div&gt;" style="sketch=0;points=[[0,0,0],[0.25,0,0],[0.5,0,0],[0.75,0,0],[1,0,0],[0,1,0],[0.25,1,0],[0.5,1,0],[0.75,1,0],[1,1,0],[0,0.25,0],[0,0.5,0],[0,0.75,0],[1,0.25,0],[1,0.5,0],[1,0.75,0]];outlineConnect=0;fontColor=#232F3E;fillColor=#ED7100;strokeColor=#ffffff;dashed=0;verticalLabelPosition=bottom;verticalAlign=top;align=center;html=1;fontSize=12;fontStyle=0;aspect=fixed;shape=mxgraph.aws4.resourceIcon;resIcon=mxgraph.aws4.ec2;" vertex="1" parent="wHoMeCdLVfItlk6bG5Gv-58">
          <mxGeometry x="250" y="101" width="78" height="78" as="geometry" />
        </mxCell>
        <mxCell id="wHoMeCdLVfItlk6bG5Gv-67" value="ECS Cluster" style="outlineConnect=0;dashed=0;verticalLabelPosition=bottom;verticalAlign=top;align=center;html=1;shape=mxgraph.aws3.ecs;fillColor=#F58534;gradientColor=none;" vertex="1" parent="wHoMeCdLVfItlk6bG5Gv-58">
          <mxGeometry x="570" y="106.25" width="72" height="67.5" as="geometry" />
        </mxCell>
        <mxCell id="wHoMeCdLVfItlk6bG5Gv-70" value="ec2_runtime" style="sketch=0;outlineConnect=0;fontColor=#232F3E;gradientColor=none;fillColor=#DD344C;strokeColor=none;dashed=0;verticalLabelPosition=bottom;verticalAlign=top;align=center;html=1;fontSize=12;fontStyle=0;aspect=fixed;pointerEvents=1;shape=mxgraph.aws4.role;" vertex="1" parent="wHoMeCdLVfItlk6bG5Gv-58">
          <mxGeometry x="460" y="61" width="35.45" height="20" as="geometry" />
        </mxCell>
      </root>
    </mxGraphModel>
  </diagram>
</mxfile>
